<svg width="23" height="27" viewBox="0 0 23 27" fill="none" xmlns="http://www.w3.org/2000/svg">
<path d="M20.4043 16.6029H22.9258V14.4287H15.6369C15.5043 16.6847 13.6801 18.4747 11.4502 18.4747C9.22029 18.4747 7.39607 16.6847 7.2635 14.4287H0.446527L0.446526 16.6029H2.52794C2.63931 17.0498 2.78514 17.4884 2.96014 17.9189C3.159 18.4038 3.39498 18.867 3.66808 19.3056L1.84651 21.1775L4.71542 24.1254L6.53964 22.2509C6.96123 22.5261 7.40668 22.7659 7.87069 22.9675C8.39303 23.1936 8.93128 23.3707 9.48014 23.4933V26.1007H13.5422V23.4715C14.0593 23.3489 14.5657 23.18 15.0589 22.9675C15.5573 22.7522 16.032 22.4934 16.4801 22.1937L18.2725 24.0355L21.144 21.0848L19.3225 19.213C19.5717 18.8017 19.7865 18.3684 19.9721 17.9189C20.1471 17.4884 20.2929 17.0498 20.4043 16.6029Z" fill="#FFB342"/>
<path d="M19.3207 4.96926V9.3595C19.3207 9.65742 19.0837 9.89914 18.7916 9.89914H18.4167C18.1246 9.89914 17.8875 9.65742 17.8875 9.3595V3.82815C16.8016 3.09176 15.5834 2.54087 14.277 2.22607V9.84293C14.277 10.1409 14.0399 10.3826 13.7478 10.3826H9.61354C9.32138 10.3826 9.08436 10.1409 9.08436 9.84293V2.22607C7.79447 2.54087 6.57625 3.09737 5.49032 3.82815V9.3595C5.49032 9.65742 5.25329 9.89914 4.96113 9.89914H4.5863C4.29414 9.89914 4.05711 9.65742 4.05711 9.3595V4.96926C1.84116 7.06038 0.446539 10.0453 0.446539 13.3675H22.9258C22.9313 10.0453 21.5422 7.06038 19.3207 4.96926Z" fill="#FFB342"/>
<path d="M13.2189 8.93373C13.2189 9.18497 13.0416 9.3881 12.8185 9.3881H10.5538C10.3365 9.3881 10.1535 9.18497 10.1535 8.93373V1.35378C10.1535 1.10255 10.3308 0.899414 10.5538 0.899414H12.8185C13.0359 0.899414 13.2189 1.10255 13.2189 1.35378V8.93373Z" fill="#FFB342"/>
</svg>
