<svg width="26" height="27" viewBox="0 0 26 27" fill="none" xmlns="http://www.w3.org/2000/svg">
<g clip-path="url(#clip0_4_362)">
<path d="M24.2509 19.8531C23.3347 18.9301 21.1158 17.583 20.0393 17.0402C18.6373 16.334 18.5219 16.2763 17.42 17.095C16.6849 17.6413 16.1963 18.1293 15.3361 17.9459C14.4759 17.7624 12.6066 16.728 10.9698 15.0966C9.33303 13.4651 8.23858 11.5417 8.05454 10.6845C7.8705 9.82716 8.36666 9.3443 8.90783 8.6076C9.67054 7.56919 9.61285 7.39612 8.96091 5.99426C8.45263 4.90392 7.06625 2.70594 6.13969 1.79444C5.14851 0.815441 5.14851 0.98851 4.50984 1.25389C3.98989 1.47264 3.49106 1.73855 3.01961 2.04827C2.09651 2.66151 1.58419 3.17092 1.22591 3.93647C0.867636 4.70201 0.70667 6.49674 2.55691 9.85775C4.40714 13.2188 5.70525 14.9374 8.39205 17.6165C11.0788 20.2956 13.1449 21.7361 16.1651 23.4299C19.9014 25.5223 21.3345 25.1144 22.1024 24.7567C22.8703 24.3991 23.382 23.8914 23.9965 22.9684C24.307 22.4977 24.5735 21.9995 24.7926 21.48C25.0586 20.8436 25.2317 20.8436 24.2509 19.8531Z" stroke="#1C2752" stroke-width="2" stroke-miterlimit="10"/>
</g>
<defs>
<clipPath id="clip0_4_362">
<rect width="26" height="26" fill="white" transform="translate(0 0.046875)"/>
</clipPath>
</defs>
</svg>
