<svg width="48" height="48" viewBox="0 0 48 48" fill="none" xmlns="http://www.w3.org/2000/svg">
<path d="M42.6157 29.9097H48V25.7686H32.436C32.1529 30.0654 28.2576 33.4748 23.4961 33.4748C18.7346 33.4748 14.8393 30.0654 14.5562 25.7686H3.90764e-07L0 29.9097H4.44445C4.68223 30.7608 4.99362 31.5963 5.3673 32.4162C5.79192 33.3399 6.29583 34.2221 6.87898 35.0576L2.98938 38.6228L9.11535 44.2377L13.0106 40.6674C13.9108 41.1916 14.862 41.6483 15.8528 42.0323C16.9681 42.463 18.1175 42.8003 19.2895 43.0338V48.0001H27.9632V42.9923C29.0673 42.7588 30.1486 42.4371 31.2016 42.0323C32.2661 41.6223 33.2795 41.1293 34.2363 40.5585L38.0637 44.0666L44.1953 38.4463L40.3057 34.8812C40.838 34.0976 41.2966 33.2725 41.6928 32.4162C42.0665 31.5963 42.3779 30.7608 42.6157 29.9097Z" fill="#1C2752"/>
<path d="M40.3021 7.75133V16.1134C40.3021 16.6809 39.7959 17.1413 39.1721 17.1413H38.3717C37.7478 17.1413 37.2418 16.6809 37.2418 16.1134V5.57783C34.9229 4.17523 32.3216 3.12595 29.5321 2.52637V17.0342C29.5321 17.6017 29.0259 18.0621 28.4021 18.0621H19.5743C18.9504 18.0621 18.4443 17.6017 18.4443 17.0342V2.52637C15.69 3.12595 13.0887 4.18593 10.77 5.57783V16.1134C10.77 16.6809 10.2638 17.1413 9.64001 17.1413H8.83962C8.21578 17.1413 7.70965 16.6809 7.70965 16.1134V7.75133C2.97793 11.7343 0 17.4196 0 23.7474H48C48.0117 17.4196 45.0456 11.7343 40.3021 7.75133Z" fill="#FFB342"/>
<path d="M27.2727 15.303C27.2727 15.7815 26.8941 16.1684 26.4178 16.1684H21.5821C21.118 16.1684 20.7272 15.7815 20.7272 15.303V0.865435C20.7272 0.386901 21.1058 0 21.5821 0H26.4178C26.8819 0 27.2727 0.386901 27.2727 0.865435V15.303Z" fill="#FFB342"/>
</svg>
